<svg id="visual" viewBox="0 0 900 600" width="900" height="600" xmlns="http://www.w3.org/2000/svg" xmlns:xlink="http://www.w3.org/1999/xlink" version="1.1"><path d="M0 121L12.5 126C25 131 50 141 75 142C100 143 125 135 150 131C175 127 200 127 225 132C250 137 275 147 300 151C325 155 350 153 375 149C400 145 425 139 450 138C475 137 500 141 525 148C550 155 575 165 600 167C625 169 650 163 675 156C700 149 725 141 750 133C775 125 800 117 825 123C850 129 875 149 887.5 159L900 169L900 0L887.5 0C875 0 850 0 825 0C800 0 775 0 750 0C725 0 700 0 675 0C650 0 625 0 600 0C575 0 550 0 525 0C500 0 475 0 450 0C425 0 400 0 375 0C350 0 325 0 300 0C275 0 250 0 225 0C200 0 175 0 150 0C125 0 100 0 75 0C50 0 25 0 12.5 0L0 0Z" fill="#2f2f2f"></path><path d="M0 193L12.5 198C25 203 50 213 75 216C100 219 125 215 150 211C175 207 200 203 225 206C250 209 275 219 300 224C325 229 350 229 375 226C400 223 425 217 450 218C475 219 500 227 525 235C550 243 575 251 600 251C625 251 650 243 675 237C700 231 725 227 750 222C775 217 800 211 825 215C850 219 875 233 887.5 240L900 247L900 167L887.5 157C875 147 850 127 825 121C800 115 775 123 750 131C725 139 700 147 675 154C650 161 625 167 600 165C575 163 550 153 525 146C500 139 475 135 450 136C425 137 400 143 375 147C350 151 325 153 300 149C275 145 250 135 225 130C200 125 175 125 150 129C125 133 100 141 75 140C50 139 25 129 12.5 124L0 119Z" fill="#343434"></path><path d="M0 247L12.5 253C25 259 50 271 75 274C100 277 125 271 150 265C175 259 200 253 225 257C250 261 275 275 300 280C325 285 350 281 375 277C400 273 425 269 450 270C475 271 500 277 525 286C550 295 575 307 600 309C625 311 650 303 675 296C700 289 725 283 750 275C775 267 800 257 825 259C850 261 875 275 887.5 282L900 289L900 245L887.5 238C875 231 850 217 825 213C800 209 775 215 750 220C725 225 700 229 675 235C650 241 625 249 600 249C575 249 550 241 525 233C500 225 475 217 450 216C425 215 400 221 375 224C350 227 325 227 300 222C275 217 250 207 225 204C200 201 175 205 150 209C125 213 100 217 75 214C50 211 25 201 12.5 196L0 191Z" fill="#3a3a3a"></path><path d="M0 307L12.5 313C25 319 50 331 75 332C100 333 125 323 150 318C175 313 200 313 225 319C250 325 275 337 300 341C325 345 350 341 375 337C400 333 425 329 450 331C475 333 500 341 525 348C550 355 575 361 600 360C625 359 650 351 675 346C700 341 725 339 750 333C775 327 800 317 825 320C850 323 875 339 887.5 347L900 355L900 287L887.5 280C875 273 850 259 825 257C800 255 775 265 750 273C725 281 700 287 675 294C650 301 625 309 600 307C575 305 550 293 525 284C500 275 475 269 450 268C425 267 400 271 375 275C350 279 325 283 300 278C275 273 250 259 225 255C200 251 175 257 150 263C125 269 100 275 75 272C50 269 25 257 12.5 251L0 245Z" fill="#3f3f3f"></path><path d="M0 487L12.5 486C25 485 50 483 75 484C100 485 125 489 150 488C175 487 200 481 225 482C250 483 275 491 300 492C325 493 350 487 375 486C400 485 425 489 450 491C475 493 500 493 525 494C550 495 575 497 600 497C625 497 650 495 675 493C700 491 725 489 750 486C775 483 800 479 825 480C850 481 875 487 887.5 490L900 493L900 353L887.5 345C875 337 850 321 825 318C800 315 775 325 750 331C725 337 700 339 675 344C650 349 625 357 600 358C575 359 550 353 525 346C500 339 475 331 450 329C425 327 400 331 375 335C350 339 325 343 300 339C275 335 250 323 225 317C200 311 175 311 150 316C125 321 100 331 75 330C50 329 25 317 12.5 311L0 305Z" fill="#4b4b4b"></path><path d="M0 565L12.5 563C25 561 50 557 75 557C100 557 125 561 150 560C175 559 200 553 225 552C250 551 275 555 300 557C325 559 350 559 375 559C400 559 425 559 450 559C475 559 500 559 525 558C550 557 575 555 600 555C625 555 650 557 675 559C700 561 725 563 750 561C775 559 800 553 825 553C850 553 875 559 887.5 562L900 565L900 491L887.5 488C875 485 850 479 825 478C800 477 775 481 750 484C725 487 700 489 675 491C650 493 625 495 600 495C575 495 550 493 525 492C500 491 475 491 450 489C425 487 400 483 375 484C350 485 325 491 300 490C275 489 250 481 225 480C200 479 175 485 150 486C125 487 100 483 75 482C50 481 25 483 12.5 484L0 485Z" fill="#575757"></path><path d="M0 601L12.5 601C25 601 50 601 75 601C100 601 125 601 150 601C175 601 200 601 225 601C250 601 275 601 300 601C325 601 350 601 375 601C400 601 425 601 450 601C475 601 500 601 525 601C550 601 575 601 600 601C625 601 650 601 675 601C700 601 725 601 750 601C775 601 800 601 825 601C850 601 875 601 887.5 601L900 601L900 563L887.5 560C875 557 850 551 825 551C800 551 775 557 750 559C725 561 700 559 675 557C650 555 625 553 600 553C575 553 550 555 525 556C500 557 475 557 450 557C425 557 400 557 375 557C350 557 325 557 300 555C275 553 250 549 225 550C200 551 175 557 150 558C125 559 100 555 75 555C50 555 25 559 12.5 561L0 563Z" fill="#636363"></path></svg>